<svg width="142" height="24" viewBox="0 0 142 24" fill="none" xmlns="http://www.w3.org/2000/svg">
<path d="M13.05 4.14V4.08C13.05 3.8 13.14 3.55 13.32 3.33C13.5 3.11 13.73 3 14.01 3C14.29 3 14.54 3.09 14.76 3.27C14.98 3.45 15.1 3.69 15.12 3.99C15.14 4.29 15.05 4.54 14.85 4.74C14.65 4.94 14.41 5.04 14.13 5.04L13.95 5.1L14.01 5.19L13.95 5.52L13.83 6.48C13.87 6.52 13.89 6.56 13.89 6.6L13.77 7.2C13.73 7.28 13.69 7.34 13.65 7.38L13.59 7.62C13.51 7.94 13.44 8.2 13.38 8.4C13.32 8.6 13.27 8.76 13.23 8.88V9C13.19 9.2 13.16 9.36 13.14 9.48C13.12 9.6 13.05 9.8 12.93 10.08C12.85 10.24 12.85 10.5 12.93 10.86L12.99 10.92C12.99 11.04 13.04 11.18 13.14 11.34C13.24 11.5 13.29 11.64 13.29 11.76C13.33 12.56 13.27 13.24 13.11 13.8L13.23 14.16C13.71 14.4 13.85 14.66 13.65 14.94L13.95 15.06C14.43 15.3 14.77 15.51 14.97 15.69C15.17 15.87 15.37 16.06 15.57 16.26C15.73 16.3 15.85 16.36 15.93 16.44L16.11 16.5C16.95 17.06 17.79 17.74 18.63 18.54L18.87 18.72V18.78L18.81 18.9L18.99 19.02H19.05C19.17 19.1 19.25 19.14 19.29 19.14H19.35C19.39 19.14 19.43 19.12 19.47 19.08L19.59 19.02C19.67 18.94 19.75 18.88 19.83 18.84H20.07C20.11 18.84 20.11 18.86 20.07 18.9L19.83 19.02L19.53 19.38H19.95L20.37 19.44C20.49 19.4 20.59 19.36 20.67 19.32L20.97 19.14C21.09 19.1 21.21 19.14 21.33 19.26H21.39C21.43 19.3 21.41 19.36 21.33 19.44L20.61 20.1C20.41 20.26 20.23 20.36 20.07 20.4L19.29 20.94C19.25 20.98 19.21 20.98 19.17 20.94L18.99 20.7L18.87 20.46L18.72 20.25L18.54 20.01L18.39 19.83L18.27 19.68L18.03 19.5C17.95 19.5 17.87 19.48 17.79 19.44L17.01 18.84C16.89 18.84 16.75 18.78 16.59 18.66C15.99 18.14 15.59 17.82 15.39 17.7L15.03 17.46L14.31 17.34C14.07 17.3 13.75 17.18 13.35 16.98L12.87 16.74C12.55 16.58 12.33 16.5 12.21 16.5L11.97 16.38C11.81 16.34 11.69 16.3 11.61 16.26L11.49 16.14C11.41 16.14 11.33 16.16 11.25 16.2L10.05 16.8L8.54996 17.46C8.14996 17.78 7.76996 18.04 7.40996 18.24L6.74996 18.54L5.72996 19.26C5.64996 19.34 5.56996 19.34 5.48996 19.26L5.36996 19.38C5.24996 19.42 5.16996 19.44 5.12996 19.44L4.88996 19.56V19.68H4.76996L4.64996 19.86C4.56996 20.02 4.48996 20.11 4.40996 20.13C4.32996 20.15 4.27996 20.18 4.25996 20.22C4.23996 20.26 4.21996 20.29 4.19996 20.31L4.07996 20.43L3.89996 20.55L3.62996 20.52L3.26996 20.58L3.02996 20.64C2.82996 20.68 2.66996 20.65 2.54996 20.55C2.42996 20.45 2.32996 20.3 2.24996 20.1C2.16996 19.98 2.20996 19.88 2.36996 19.8L2.42996 19.74C2.46996 19.7 2.52996 19.68 2.60996 19.68H2.96996L3.44996 19.5L3.68996 19.44C3.68996 19.36 3.70996 19.3 3.74996 19.26C3.78996 19.22 3.84996 19.2 3.92996 19.2V19.14C3.88996 19.06 3.86996 18.98 3.86996 18.9C3.82996 18.82 3.81996 18.76 3.83996 18.72C3.85996 18.68 3.87996 18.66 3.89996 18.66H3.92996L3.98996 18.84C4.02996 19.04 4.08996 19.1 4.16996 19.02L4.22996 18.9C4.26996 18.82 4.32996 18.78 4.40996 18.78L4.52996 18.9L4.64996 18.78L4.58996 18.72C4.58996 18.68 4.60996 18.66 4.64996 18.66L4.88996 18.42C5.08996 18.18 5.32996 17.96 5.60996 17.76C6.16996 17.32 6.76996 16.98 7.40996 16.74C7.60996 16.54 7.82996 16.44 8.06996 16.44C8.22996 16.16 8.46996 15.86 8.78996 15.54C9.06996 15.34 9.26996 15.2 9.38996 15.12C9.46996 14.96 9.56996 14.88 9.68996 14.88H9.74996L9.86996 14.76C9.94996 14.72 10.01 14.68 10.05 14.64V14.34C10.05 14.14 10.07 13.98 10.11 13.86C10.15 13.74 10.25 13.68 10.41 13.68L10.65 13.44C10.57 13.28 10.53 13.1 10.53 12.9H10.47C10.39 12.78 10.35 12.66 10.35 12.54C10.23 12.34 10.15 12.18 10.11 12.06H9.92996C9.88996 12.18 9.78996 12.26 9.62996 12.3L9.56996 12.42C9.40996 12.7 9.26996 12.91 9.14996 13.05C9.02996 13.19 8.80996 13.36 8.48996 13.56C8.28996 13.76 8.14996 13.98 8.06996 14.22C8.02996 14.34 8.02996 14.46 8.06996 14.58L8.00996 14.7H8.06996C8.06996 14.78 8.08996 14.82 8.12996 14.82H8.18996C8.26996 14.86 8.30996 14.91 8.30996 14.97C8.30996 15.03 8.24996 15.05 8.12996 15.03C8.00996 15.01 7.91996 14.97 7.85996 14.91C7.79996 14.85 7.74996 14.82 7.70996 14.82L7.52996 15C7.44996 15.12 7.36996 15.17 7.28996 15.15C7.20996 15.13 7.18996 15.1 7.22996 15.06L7.28996 15C7.32996 14.92 7.32996 14.88 7.28996 14.88L6.80996 15C6.76996 15.04 6.71996 15.04 6.65996 15C6.59996 14.96 6.60996 14.92 6.68996 14.88L6.98996 14.76C6.98996 14.72 6.96996 14.7 6.92996 14.7C6.76996 14.78 6.60996 14.8 6.44996 14.76L6.14996 14.7L6.08996 14.64C6.08996 14.6 6.10996 14.58 6.14996 14.58C6.30996 14.62 6.50996 14.6 6.74996 14.52L7.16996 14.34L7.64996 13.8L7.70996 13.68C7.86996 13.36 8.03996 13.07 8.21996 12.81C8.39996 12.55 8.58996 12.34 8.78996 12.18L8.84996 11.94C8.92996 11.78 9.00996 11.64 9.08996 11.52C9.16996 11.4 9.26996 11.24 9.38996 11.04L9.56996 10.8C9.72996 10.56 9.90996 10.44 10.11 10.44L10.29 10.26C10.33 10.22 10.35 10.16 10.35 10.08L10.47 9.96L10.41 9.9C10.17 9.7 10.05 9.52 10.05 9.36C10.01 9.08 10.1 8.84 10.32 8.64C10.54 8.44 10.76 8.35 10.98 8.37C11.2 8.39 11.37 8.46 11.49 8.58L11.61 8.7C11.65 8.7 11.67 8.72 11.67 8.76L11.91 8.88V9.06C11.99 9.14 12.03 9.2 12.03 9.24C12.11 9.12 12.23 8.98 12.39 8.82L12.69 7.86C12.69 7.7 12.73 7.54 12.81 7.38L12.93 7.2V7.08L13.11 6.36H13.23L13.41 5.64C13.45 5.52 13.45 5.38 13.41 5.22L13.17 4.62L13.05 4.14Z" fill="white"/>
<path d="M36.752 18.216C35.876 18.216 35.132 18.078 34.52 17.802C33.908 17.526 33.44 17.124 33.116 16.596C32.792 16.068 32.63 15.408 32.63 14.616V14.022H34.628V14.67C34.628 15.258 34.808 15.714 35.168 16.038C35.528 16.35 36.056 16.506 36.752 16.506C37.436 16.506 37.958 16.278 38.318 15.822C38.678 15.366 38.858 14.712 38.858 13.86V5.652H40.874V13.824C40.874 14.796 40.712 15.612 40.388 16.272C40.064 16.92 39.596 17.406 38.984 17.73C38.372 18.054 37.628 18.216 36.752 18.216ZM47.5212 18.216C46.5372 18.216 45.7032 18.042 45.0192 17.694C44.3472 17.334 43.8372 16.788 43.4892 16.056C43.1532 15.324 42.9852 14.394 42.9852 13.266C42.9852 12.126 43.1532 11.196 43.4892 10.476C43.8372 9.744 44.3472 9.204 45.0192 8.856C45.7032 8.496 46.5372 8.316 47.5212 8.316C48.5292 8.316 49.3692 8.496 50.0412 8.856C50.7132 9.204 51.2172 9.744 51.5532 10.476C51.9012 11.196 52.0752 12.126 52.0752 13.266C52.0752 14.394 51.9012 15.324 51.5532 16.056C51.2172 16.788 50.7132 17.334 50.0412 17.694C49.3692 18.042 48.5292 18.216 47.5212 18.216ZM47.5212 16.668C48.1212 16.668 48.6132 16.554 48.9972 16.326C49.3812 16.086 49.6632 15.726 49.8432 15.246C50.0352 14.766 50.1312 14.16 50.1312 13.428V13.104C50.1312 12.372 50.0352 11.766 49.8432 11.286C49.6632 10.806 49.3812 10.452 48.9972 10.224C48.6132 9.984 48.1212 9.864 47.5212 9.864C46.9332 9.864 46.4472 9.984 46.0632 10.224C45.6792 10.452 45.3912 10.806 45.1992 11.286C45.0192 11.766 44.9292 12.372 44.9292 13.104V13.428C44.9292 14.16 45.0192 14.766 45.1992 15.246C45.3912 15.726 45.6792 16.086 46.0632 16.326C46.4472 16.554 46.9332 16.668 47.5212 16.668ZM53.9833 18V8.532H55.5313L55.6933 10.062H55.8013C55.9093 9.762 56.0473 9.48 56.2153 9.216C56.3953 8.952 56.6233 8.736 56.8993 8.568C57.1873 8.4 57.5353 8.316 57.9433 8.316C58.1353 8.316 58.3033 8.334 58.4473 8.37C58.6033 8.406 58.7233 8.436 58.8073 8.46V10.224H58.1773C57.7933 10.224 57.4513 10.284 57.1513 10.404C56.8633 10.524 56.6173 10.704 56.4133 10.944C56.2213 11.172 56.0773 11.454 55.9813 11.79C55.8973 12.126 55.8553 12.504 55.8553 12.924V18H53.9833ZM63.2882 18.216C62.5202 18.216 61.8542 18.042 61.2902 17.694C60.7262 17.346 60.2882 16.806 59.9762 16.074C59.6762 15.342 59.5262 14.394 59.5262 13.23C59.5262 12.09 59.6822 11.16 59.9942 10.44C60.3062 9.72 60.7382 9.186 61.2902 8.838C61.8422 8.49 62.4782 8.316 63.1982 8.316C63.6182 8.316 64.0082 8.364 64.3682 8.46C64.7282 8.556 65.0462 8.706 65.3222 8.91C65.6102 9.114 65.8502 9.372 66.0422 9.684H66.1682V4.986H68.0402V18H66.5102L66.3302 16.704H66.2042C65.8922 17.208 65.4782 17.586 64.9622 17.838C64.4582 18.09 63.9002 18.216 63.2882 18.216ZM63.8102 16.596C64.3622 16.596 64.8062 16.476 65.1422 16.236C65.4902 15.984 65.7482 15.624 65.9162 15.156C66.0842 14.676 66.1682 14.094 66.1682 13.41V13.158C66.1682 12.582 66.1142 12.09 66.0062 11.682C65.8982 11.274 65.7422 10.944 65.5382 10.692C65.3342 10.428 65.0882 10.236 64.8002 10.116C64.5122 9.996 64.1882 9.936 63.8282 9.936C63.2762 9.936 62.8262 10.05 62.4782 10.278C62.1302 10.494 61.8722 10.836 61.7042 11.304C61.5482 11.772 61.4702 12.378 61.4702 13.122V13.446C61.4702 14.19 61.5542 14.796 61.7222 15.264C61.8902 15.72 62.1422 16.056 62.4782 16.272C62.8262 16.488 63.2702 16.596 63.8102 16.596ZM72.848 18.216C72.548 18.216 72.224 18.18 71.876 18.108C71.528 18.036 71.198 17.904 70.886 17.712C70.586 17.52 70.34 17.256 70.148 16.92C69.956 16.572 69.86 16.122 69.86 15.57C69.86 14.922 70.01 14.388 70.31 13.968C70.61 13.548 71.03 13.218 71.57 12.978C72.11 12.738 72.752 12.57 73.496 12.474C74.252 12.378 75.074 12.33 75.962 12.33V11.394C75.962 11.082 75.908 10.806 75.8 10.566C75.704 10.326 75.518 10.14 75.242 10.008C74.978 9.876 74.594 9.81 74.09 9.81C73.586 9.81 73.19 9.876 72.902 10.008C72.626 10.128 72.428 10.284 72.308 10.476C72.2 10.656 72.146 10.854 72.146 11.07V11.34H70.346C70.334 11.28 70.328 11.22 70.328 11.16C70.328 11.1 70.328 11.028 70.328 10.944C70.328 10.38 70.484 9.906 70.796 9.522C71.12 9.126 71.57 8.826 72.146 8.622C72.722 8.418 73.388 8.316 74.144 8.316C74.96 8.316 75.638 8.436 76.178 8.676C76.73 8.904 77.144 9.234 77.42 9.666C77.696 10.098 77.834 10.62 77.834 11.232V16.038C77.834 16.266 77.888 16.428 77.996 16.524C78.116 16.62 78.254 16.668 78.41 16.668H79.058V17.928C78.914 17.988 78.734 18.048 78.518 18.108C78.302 18.168 78.05 18.198 77.762 18.198C77.438 18.198 77.162 18.138 76.934 18.018C76.718 17.91 76.538 17.754 76.394 17.55C76.262 17.334 76.172 17.094 76.124 16.83H76.016C75.8 17.106 75.536 17.352 75.224 17.568C74.924 17.772 74.576 17.928 74.18 18.036C73.784 18.156 73.34 18.216 72.848 18.216ZM73.37 16.668C73.742 16.668 74.084 16.614 74.396 16.506C74.72 16.386 74.996 16.224 75.224 16.02C75.452 15.804 75.632 15.552 75.764 15.264C75.896 14.964 75.962 14.64 75.962 14.292V13.662C75.134 13.662 74.408 13.71 73.784 13.806C73.16 13.902 72.674 14.082 72.326 14.346C71.978 14.598 71.804 14.952 71.804 15.408C71.804 15.684 71.864 15.918 71.984 16.11C72.104 16.29 72.284 16.428 72.524 16.524C72.764 16.62 73.046 16.668 73.37 16.668ZM80.3505 18V8.532H81.8985L82.0605 9.882H82.1865C82.4145 9.534 82.6845 9.246 82.9965 9.018C83.3085 8.79 83.6505 8.616 84.0225 8.496C84.4065 8.376 84.8265 8.316 85.2825 8.316C85.8825 8.316 86.4105 8.424 86.8665 8.64C87.3225 8.844 87.6765 9.18 87.9285 9.648C88.1925 10.116 88.3245 10.746 88.3245 11.538V18H86.4525V11.826C86.4525 11.466 86.4045 11.166 86.3085 10.926C86.2245 10.686 86.0985 10.494 85.9305 10.35C85.7625 10.206 85.5645 10.104 85.3365 10.044C85.1085 9.984 84.8565 9.954 84.5805 9.954C84.1485 9.954 83.7525 10.062 83.3925 10.278C83.0445 10.482 82.7625 10.77 82.5465 11.142C82.3305 11.514 82.2225 11.952 82.2225 12.456V18H80.3505ZM95.4929 18.216C94.8209 18.216 94.1729 18.144 93.5489 18C92.9249 17.868 92.3729 17.652 91.8929 17.352C91.4129 17.04 91.0349 16.65 90.7589 16.182C90.4829 15.702 90.3449 15.132 90.3449 14.472C90.3449 14.4 90.3449 14.334 90.3449 14.274C90.3569 14.202 90.3629 14.142 90.3629 14.094H92.3789C92.3789 14.13 92.3729 14.184 92.3609 14.256C92.3609 14.328 92.3609 14.388 92.3609 14.436C92.3609 14.88 92.4929 15.258 92.7569 15.57C93.0209 15.882 93.3869 16.116 93.8549 16.272C94.3349 16.428 94.8809 16.506 95.4929 16.506C95.8289 16.506 96.1529 16.488 96.4649 16.452C96.7769 16.404 97.0589 16.338 97.3109 16.254C97.5749 16.158 97.8029 16.044 97.9949 15.912C98.1869 15.768 98.3369 15.6 98.4449 15.408C98.5529 15.216 98.6069 14.994 98.6069 14.742C98.6069 14.358 98.4929 14.04 98.2649 13.788C98.0489 13.536 97.7489 13.326 97.3649 13.158C96.9929 12.99 96.5669 12.84 96.0869 12.708C95.6189 12.576 95.1329 12.444 94.6289 12.312C94.1249 12.18 93.6329 12.024 93.1529 11.844C92.6849 11.664 92.2589 11.448 91.8749 11.196C91.5029 10.932 91.2029 10.608 90.9749 10.224C90.7589 9.828 90.6509 9.348 90.6509 8.784C90.6509 8.244 90.7649 7.764 90.9929 7.344C91.2209 6.924 91.5509 6.576 91.9829 6.3C92.4149 6.012 92.9309 5.796 93.5309 5.652C94.1309 5.508 94.8089 5.436 95.5649 5.436C96.2129 5.436 96.8249 5.508 97.4009 5.652C97.9769 5.784 98.4809 5.994 98.9129 6.282C99.3449 6.57 99.6809 6.936 99.9209 7.38C100.173 7.824 100.299 8.352 100.299 8.964V9.18H98.3009V8.946C98.3009 8.562 98.1869 8.238 97.9589 7.974C97.7309 7.71 97.4129 7.506 97.0049 7.362C96.5969 7.218 96.1229 7.146 95.5829 7.146C94.9469 7.146 94.4129 7.212 93.9809 7.344C93.5489 7.464 93.2189 7.638 92.9909 7.866C92.7749 8.082 92.6669 8.346 92.6669 8.658C92.6669 9.006 92.7809 9.294 93.0089 9.522C93.2369 9.738 93.5369 9.924 93.9089 10.08C94.2929 10.236 94.7189 10.38 95.1869 10.512C95.6669 10.632 96.1529 10.764 96.6449 10.908C97.1489 11.04 97.6349 11.196 98.1029 11.376C98.5829 11.556 99.0089 11.778 99.3809 12.042C99.7649 12.306 100.071 12.636 100.299 13.032C100.527 13.416 100.641 13.89 100.641 14.454C100.641 15.342 100.419 16.068 99.9749 16.632C99.5309 17.184 98.9189 17.586 98.1389 17.838C97.3709 18.09 96.4889 18.216 95.4929 18.216ZM102.727 18V4.986H104.599V9.666H104.725C104.953 9.378 105.211 9.138 105.499 8.946C105.787 8.742 106.111 8.586 106.471 8.478C106.831 8.37 107.227 8.316 107.659 8.316C108.259 8.316 108.787 8.424 109.243 8.64C109.699 8.844 110.053 9.18 110.305 9.648C110.569 10.116 110.701 10.746 110.701 11.538V18H108.829V11.826C108.829 11.466 108.781 11.166 108.685 10.926C108.601 10.686 108.475 10.494 108.307 10.35C108.139 10.206 107.941 10.104 107.713 10.044C107.485 9.984 107.233 9.954 106.957 9.954C106.525 9.954 106.129 10.056 105.769 10.26C105.421 10.464 105.139 10.752 104.923 11.124C104.707 11.496 104.599 11.94 104.599 12.456V18H102.727ZM117.078 18.216C116.094 18.216 115.26 18.042 114.576 17.694C113.904 17.334 113.394 16.788 113.046 16.056C112.71 15.324 112.542 14.394 112.542 13.266C112.542 12.126 112.71 11.196 113.046 10.476C113.394 9.744 113.904 9.204 114.576 8.856C115.26 8.496 116.094 8.316 117.078 8.316C118.086 8.316 118.926 8.496 119.598 8.856C120.27 9.204 120.774 9.744 121.11 10.476C121.458 11.196 121.632 12.126 121.632 13.266C121.632 14.394 121.458 15.324 121.11 16.056C120.774 16.788 120.27 17.334 119.598 17.694C118.926 18.042 118.086 18.216 117.078 18.216ZM117.078 16.668C117.678 16.668 118.17 16.554 118.554 16.326C118.938 16.086 119.22 15.726 119.4 15.246C119.592 14.766 119.688 14.16 119.688 13.428V13.104C119.688 12.372 119.592 11.766 119.4 11.286C119.22 10.806 118.938 10.452 118.554 10.224C118.17 9.984 117.678 9.864 117.078 9.864C116.49 9.864 116.004 9.984 115.62 10.224C115.236 10.452 114.948 10.806 114.756 11.286C114.576 11.766 114.486 12.372 114.486 13.104V13.428C114.486 14.16 114.576 14.766 114.756 15.246C114.948 15.726 115.236 16.086 115.62 16.326C116.004 16.554 116.49 16.668 117.078 16.668ZM127.464 18.216C126.492 18.216 125.676 18.042 125.016 17.694C124.368 17.334 123.876 16.788 123.54 16.056C123.204 15.324 123.036 14.394 123.036 13.266C123.036 12.126 123.204 11.196 123.54 10.476C123.876 9.744 124.374 9.204 125.034 8.856C125.694 8.496 126.516 8.316 127.5 8.316C128.4 8.316 129.15 8.49 129.75 8.838C130.362 9.174 130.824 9.69 131.136 10.386C131.448 11.082 131.604 11.958 131.604 13.014V13.734H124.962C124.986 14.406 125.088 14.97 125.268 15.426C125.448 15.87 125.718 16.2 126.078 16.416C126.45 16.62 126.918 16.722 127.482 16.722C127.83 16.722 128.142 16.68 128.418 16.596C128.694 16.5 128.928 16.368 129.12 16.2C129.312 16.02 129.462 15.81 129.57 15.57C129.678 15.318 129.732 15.036 129.732 14.724H131.568C131.568 15.288 131.472 15.786 131.28 16.218C131.088 16.65 130.806 17.016 130.434 17.316C130.074 17.604 129.642 17.826 129.138 17.982C128.634 18.138 128.076 18.216 127.464 18.216ZM124.998 12.366H129.642C129.642 11.898 129.588 11.508 129.48 11.196C129.384 10.872 129.24 10.608 129.048 10.404C128.856 10.2 128.628 10.056 128.364 9.972C128.1 9.876 127.8 9.828 127.464 9.828C126.96 9.828 126.528 9.918 126.168 10.098C125.82 10.278 125.55 10.56 125.358 10.944C125.166 11.316 125.046 11.79 124.998 12.366ZM136.999 18.216C136.339 18.216 135.757 18.144 135.253 18C134.749 17.856 134.329 17.658 133.993 17.406C133.657 17.154 133.399 16.854 133.219 16.506C133.051 16.146 132.967 15.75 132.967 15.318C132.967 15.258 132.967 15.204 132.967 15.156C132.979 15.108 132.985 15.066 132.985 15.03H134.839C134.839 15.066 134.839 15.102 134.839 15.138C134.839 15.162 134.839 15.192 134.839 15.228C134.839 15.6 134.941 15.9 135.145 16.128C135.349 16.344 135.619 16.5 135.955 16.596C136.303 16.68 136.681 16.722 137.089 16.722C137.449 16.722 137.779 16.68 138.079 16.596C138.391 16.5 138.643 16.362 138.835 16.182C139.039 16.002 139.141 15.774 139.141 15.498C139.141 15.138 139.015 14.862 138.763 14.67C138.511 14.478 138.181 14.328 137.773 14.22C137.365 14.1 136.939 13.974 136.495 13.842C136.099 13.734 135.703 13.62 135.307 13.5C134.923 13.368 134.575 13.2 134.263 12.996C133.951 12.792 133.699 12.534 133.507 12.222C133.315 11.91 133.219 11.52 133.219 11.052C133.219 10.608 133.315 10.218 133.507 9.882C133.699 9.546 133.963 9.264 134.299 9.036C134.647 8.808 135.055 8.634 135.523 8.514C136.003 8.394 136.525 8.334 137.089 8.334C137.677 8.334 138.199 8.4 138.655 8.532C139.111 8.652 139.495 8.826 139.807 9.054C140.131 9.282 140.377 9.558 140.545 9.882C140.713 10.194 140.797 10.53 140.797 10.89C140.797 10.962 140.791 11.04 140.779 11.124C140.779 11.196 140.779 11.244 140.779 11.268H138.943V11.106C138.943 10.866 138.877 10.65 138.745 10.458C138.613 10.266 138.403 10.11 138.115 9.99C137.839 9.87 137.467 9.81 136.999 9.81C136.687 9.81 136.411 9.84 136.171 9.9C135.931 9.948 135.733 10.02 135.577 10.116C135.421 10.212 135.301 10.326 135.217 10.458C135.145 10.59 135.109 10.74 135.109 10.908C135.109 11.184 135.205 11.4 135.397 11.556C135.601 11.7 135.865 11.826 136.189 11.934C136.513 12.03 136.861 12.138 137.233 12.258C137.665 12.378 138.103 12.504 138.547 12.636C138.991 12.756 139.399 12.912 139.771 13.104C140.155 13.296 140.461 13.56 140.689 13.896C140.929 14.232 141.049 14.682 141.049 15.246C141.049 15.762 140.947 16.212 140.743 16.596C140.539 16.98 140.251 17.292 139.879 17.532C139.519 17.76 139.093 17.928 138.601 18.036C138.109 18.156 137.575 18.216 136.999 18.216Z" fill="white"/>
</svg>
